# xmcd CD database file
#
# Track frame offsets:
#	150
#	17903
#	34879
#	58836
#	73323
#	98231
#	122776
#	139967
#	155074
#	174461
#	189354
#	205209
#
# Disc length: 2941 seconds
#
# Revision: 2
# Processed by: cddbd v1.5.1PL0 Copyright (c) Steve Scherf et al.
# Submitted via: CDex 1.51
#
DISCID=b60b7b0c
DTITLE=Piano: Matthias Hülsemann - Schlagzeug: Uli Tietzel - Baß: Oliver Karstens - Saxophon: Rudi Gunka - Keyboards: Dirk Nagel - Bar Musik Vol. 3
DYEAR=1900
DGENRE=Jazz
TTITLE0=Tangerine
TTITLE1=Someday My Prince Will Come
TTITLE2=Once I Loved
TTITLE3=It Don´t Mean A Thing
TTITLE4=Masquerade
TTITLE5=Lover Man
TTITLE6=Our Day Will Come
TTITLE7=One Note Samba
TTITLE8=I´ve Never Been In Love Before
TTITLE9=Lady Byrd
TTITLE10=Lady Be Good
TTITLE11=Cute
EXTD=
EXTT0=
EXTT1=
EXTT2=
EXTT3=
EXTT4=
EXTT5=
EXTT6=
EXTT7=
EXTT8=
EXTT9=
EXTT10=
EXTT11=
PLAYORDER=
